
<svg xmlns="http://www.w3.org/2000/svg" version="1.1" xmlns:xlink="http://www.w3.org/1999/xlink" preserveAspectRatio="none" x="0px" y="0px" width="300px" height="300px" viewBox="0 0 300 300">
<defs>
<g id="Layer0_0_FILL">
<path fill="#0033CC" stroke="none" d="
M 272.65 238.75
L 272.65 236.7
Q 272.05 237.5 271.5 238.3 272.05 238.5 272.65 238.75 Z"/>

<path fill="#BB1812" stroke="none" d="
M 272.65 63.3
Q 265.35 53.2 256.05 43.95 246.75 34.65 236.7 27.35 222.65 17.15 207.05 10.75 187.6 2.75 165.7 0.75 159.85 0.15 153.9 0.05 151.95 0 150 0 148 0 146.1 0.05 140.15 0.15 134.3 0.75 112.4 2.75 92.95 10.75 88.5 12.6 84.25 14.7 73.35 20.05 63.3 27.35 53.2 34.65 43.95 43.95 34.65 53.2 27.35 63.3 17.15 77.3 10.8 92.9 0.7 117.6 0.05 146.15 0 148.1 0 150 0 151.9 0.05 153.85 0.7 182.4 10.75 207.1 11.6 209.2 12.6 211.25 18.9 225.4 28.5 238.25 35.4 247.55 43.95 256.05 66.1 278.25 92.9 289.25 117.55 299.3 146.15 300 148.05 300 150 300 151.9 300 153.85 300 182.4 299.3 207.1 289.25 222.65 282.85 236.7 272.65 246.75 265.35 256.05 256.05 264.6 247.55 271.5 238.3 272.05 237.5 272.65 236.7 281.45 224.6 287.4 211.25 288.35 209.2 289.2 207.05 299.3 182.4 300 153.85 300 151.9 300 150 300 148.1 300 146.15 299.3 117.6 289.2 92.9 282.8 77.3 272.65 63.3
M 248.45 51.5
L 248.5 51.55
Q 263.2 66.3 272.65 83.3 288.4 111.75 289.2 146.45
L 289.2 153.8
Q 289.15 154.15 289.15 154.5 288.35 182.25 277.9 206.05 275.5 211.5 272.65 216.7 268.05 224.9 262.25 232.65 256.05 240.8 248.45 248.45 233.65 263.2 216.7 272.65 188.2 288.45 153.6 289.25
L 146.4 289.25
Q 91 287.95 51.55 248.5
L 51.5 248.45
Q 43.9 240.8 37.75 232.65 28.2 220 22.05 206.05 11.6 182.25 10.8 154.5 10.8 154.15 10.8 153.8
L 10.8 146.45
Q 11.55 111.7 27.35 83.3 36.75 66.3 51.5 51.5 66.25 36.75 83.3 27.35 83.75 27.1 84.3 26.8 107.4 14.25 134.6 11.5 140.25 10.95 146.1 10.8
L 153.9 10.8
Q 159.75 10.95 165.45 11.5 193.2 14.3 216.75 27.35 233.65 36.75 248.45 51.5
M 135.15 38.3
Q 135.15 38.15 135.2 38 135.15 37.95 135.1 37.9
L 135.1 38.5
Q 132.55 23.55 84.35 46.05 73.2 53.25 63.25 63.25 28.85 97.7 27.4 145.85
L 27.35 150 27.6 150
Q 32.45 197.9 46.15 193.2
L 105.45 161.6 102.9 162.9
Q 108.15 159.15 108.95 155.65 109.25 153.7 108.35 151.75 103.8 145.8 109.65 143.4 112.05 141.9 112.4 139.95 112.7 138.25 111.55 136.35 106.55 133.9 104.6 126.65 104.1 122.9 107.3 122.3 114.35 120.4 118.95 123.55 123.85 123.55 124.1 118.4 123.3 112.1 130.7 113.05 136.75 112.65 137.55 102.8
L 135.2 38.55
Q 135.15 38.4 135.15 38.3
M 105.35 69.3
Q 109.4 70.1 111.7 73.55
L 112.05 73.95
Q 119.75 85.15 115.55 97.8 102.25 96.6 95.05 85.1
L 94.75 84.7
Q 92.55 81.15 93.35 77.15 94.15 73.2 97.5 70.85
L 97.95 70.6
Q 101.45 68.45 105.35 69.3
M 66.7 110.35
Q 65.65 106.4 67.55 102.8
L 67.8 102.35
Q 69.95 98.9 73.9 97.9 77.8 96.8 81.35 98.75
L 81.85 99
Q 93.85 105.55 95.75 118.75 83.35 123.7 71.65 116.6
L 71.2 116.35
Q 67.7 114.2 66.7 110.35
M 55.15 144.75
L 55.2 144.2
Q 55.5 140.2 58.55 137.45 61.6 134.8 65.75 134.9
L 66.25 134.95
Q 74.4 135.25 80.4 139.3 84.45 142 87.5 146.35 85.7 148.4 83.65 150 79.7 153.1 75 154.4 70.4 155.65 65.1 155.2
L 64.55 155.15
Q 60.45 154.9 57.75 151.8 57 150.95 56.45 150 55.1 147.65 55.15 144.75
M 103.95 123.45
L 103.95 123.4 104.05 123.4 103.95 123.45
M 184.7 184.3
Q 178.9 181.6 175.45 182.7 173.55 183.5 172.4 185.15 169.45 192.1 164.5 188.25 161.95 186.95 160.1 187.6 158.45 188.1 157.4 190.15 157.8 195.7 152.45 200.9 149.45 203.25 147.45 200.8 142.2 195.65 142.6 190.1 140.15 185.9 135.55 188.3 130.55 192.1 127.65 185.2 124.25 180.15 115.3 184.35
L 115.8 184 60.45 218.45
Q 54.5 224 64.55 235.4 73 244.95 92.65 258.7
L 92.6 258.8
Q 118.4 272.65 150 272.65
L 154.15 272.65
Q 183.3 271.75 207.4 258.8
L 207.35 258.7
Q 227.05 244.95 235.45 235.5 245.55 224 239.5 218.45
L 182.55 182.9 184.7 184.3
M 139.85 234.9
L 139.85 234.35
Q 139.5 220.7 150 212.45 160.5 220.7 160.2 234.35
L 160.2 234.9
Q 160.05 238.95 157.2 241.8 154.3 244.7 150.25 244.8
L 149.7 244.8
Q 145.65 244.7 142.85 241.8 139.9 238.95 139.85 234.9
M 121.2 229.9
L 121 230.35
Q 119 234 115.15 235.25 111.35 236.55 107.65 234.85
L 107.15 234.55
Q 103.6 232.65 102.35 228.8 101.05 224.9 102.85 221.25
L 103.05 220.75
Q 108.9 208.45 121.95 205.75 127.6 217.9 121.2 229.9
M 196.9 220.75
L 197.15 221.25
Q 198.95 224.9 197.6 228.8 196.4 232.65 192.8 234.55
L 192.35 234.85
Q 188.65 236.55 184.8 235.25 180.95 234 179 230.35
L 178.8 229.9
Q 172.4 217.9 178.05 205.75 191.1 208.45 196.9 220.75
M 165.7 35.8
Q 165.15 36.65 164.85 37.7 164.75 38.05 164.7 38.45
L 164.7 37.95
Q 164.6 38.15 164.55 38.3
L 162.35 102.9
Q 163.0255859375 109.2236328125 165.65 111.65 167.2 112.9 169.3 113.05 176.75 112.15 175.9 118.4 176.05 121.2 177.5 122.5 178.85 123.6 181.1 123.55 185.7 120.45 192.9 122.45 196.45 123.8 195.3 126.85 193.5 133.95 188.5 136.4 186.05 140.6 190.4 143.4 196.2 145.85 191.7 151.75 188.95 157.25 197.15 162.9
L 194.55 161.6 254.25 193.45
Q 267.9 197.3 272.65 147.8
L 272.65 145.85
Q 271.15 97.75 236.75 63.3
L 236.7 63.25
Q 226.65 53.2 215.45 46 172.25 25.8 165.7 35.8
M 194.6 69.3
Q 198.5 68.45 202.05 70.6
L 202.45 70.85
Q 205.8 73.2 206.6 77.15 207.4 81.15 205.25 84.7
L 204.9 85.1
Q 204.1 86.4 203.25 87.55 196.2 96.75 184.45 97.8 182.7 92.55 183 87.55 183.45 80.5 187.95 73.95
L 188.3 73.55
Q 190.55 70.1 194.6 69.3
M 218.6 98.75
Q 222.2 96.8 226.1 97.9 230.05 98.9 232.15 102.35
L 232.45 102.8
Q 234.35 106.4 233.3 110.35 232.25 114.2 228.8 116.35
L 228.3 116.6
Q 220.55 121.35 212.45 120.7 208.4 120.4 204.25 118.75
L 204.2 118.75
Q 205.65 109.05 212.45 103 214.95 100.8 218.15 99
L 218.6 98.75
M 214.25 148.2
Q 213.35 147.35 212.5 146.35 220.1 135.45 233.7 134.95
L 234.25 134.9
Q 238.4 134.8 241.45 137.45 244.5 140.2 244.8 144.2
L 244.85 144.75
Q 244.9 147.65 243.55 150 243 150.95 242.25 151.8 239.5 154.9 235.4 155.15
L 234.9 155.2
Q 224.1 156.15 216.35 150 215.25 149.15 214.25 148.2 Z"/>
</g>

<path id="Layer0_0_1_STROKES" stroke="#FF0000" stroke-width="1" stroke-linejoin="round" stroke-linecap="round" fill="none" d="
M 103.95 123.45
L 103.95 123.4 104.05 123.4 103.95 123.45 Z"/>
</defs>

<g transform="matrix( 1, 0, 0, 1, 0,0) ">
<use xlink:href="#Layer0_0_FILL"/>

<use xlink:href="#Layer0_0_1_STROKES"/>
</g>
</svg>
